<?xml version="1.0" encoding="UTF-8" standalone="no"?><!DOCTYPE svg PUBLIC "-//W3C//DTD SVG 1.1//EN" "http://www.w3.org/Graphics/SVG/1.1/DTD/svg11.dtd"><svg width="100%" height="100%" viewBox="0 0 101 103" version="1.1" xmlns="http://www.w3.org/2000/svg" xmlns:xlink="http://www.w3.org/1999/xlink" xml:space="preserve" xmlns:serif="http://www.serif.com/" style="fill-rule:evenodd;clip-rule:evenodd;stroke-linejoin:round;stroke-miterlimit:2;"><g id="Layer2"><path d="M24,50.532l0,-31.532l27.5,-0c0,-0 27.498,-1.362 27.5,18c0.002,14.363 -13,20 -13,20l14,19l-16.873,0c0.569,-2.07 0.873,-4.25 0.873,-6.5c0,-5.098 -1.56,-9.834 -4.229,-13.756l3.964,-4.566c1.404,0.599 3.091,0.363 4.285,-0.739c1.622,-1.497 1.724,-4.03 0.227,-5.652c-1.497,-1.623 -4.03,-1.724 -5.653,-0.227c-1.269,1.171 -1.607,2.976 -0.978,4.482l-3.719,4.285c-4.491,-5.104 -11.071,-8.327 -18.397,-8.327c-1.5,0 -2.968,0.135 -4.392,0.393l-0.471,-4.243c1.392,-0.626 2.363,-2.025 2.363,-3.65c0,-2.208 -1.792,-4 -4,-4c-2.208,0 -4,1.792 -4,4c0,1.727 1.097,3.2 2.631,3.759l0.539,4.858c-3.015,0.946 -5.781,2.459 -8.17,4.415Zm26,14.468c1.104,0 2,0.896 2,2c0,1.104 -0.896,2 -2,2c-1.104,0 -2,-0.896 -2,-2c0,-1.104 0.896,-2 2,-2Zm-17,-6c1.104,0 2,0.896 2,2c0,1.104 -0.896,2 -2,2c-1.104,0 -2,-0.896 -2,-2c0,-1.104 0.896,-2 2,-2Z" style="fill:#47be75;"/></g></svg>